<?xml version="1.0" standalone="no"?>
<!DOCTYPE svg PUBLIC "-//W3C//DTD SVG 20010904//EN"
 "http://www.w3.org/TR/2001/REC-SVG-20010904/DTD/svg10.dtd">
<svg version="1.0" xmlns="http://www.w3.org/2000/svg"
 width="489.000000pt" height="489.000000pt" viewBox="0 0 489.000000 489.000000"
 preserveAspectRatio="xMidYMid meet">
<metadata>
Created by potrace 1.14, written by Peter Selinger 2001-2017
</metadata>
<g transform="translate(0.000000,489.000000) scale(0.100000,-0.100000)"
fill="#000000" stroke="none">
<path d="M313 3015 c4 -28 9 -75 12 -105 l6 -55 -165 -95 -166 -95 0 -275 0
-276 222 -130 c122 -71 229 -133 238 -137 13 -7 73 24 231 115 118 69 224 131
237 139 l22 14 -2 275 -3 275 -95 57 c-93 57 -153 91 -197 112 -32 16 -35 29
-22 123 6 46 9 87 6 90 -3 3 -40 -20 -83 -50 l-77 -56 -46 31 c-25 17 -64 45
-85 62 l-39 30 6 -49z m208 -210 l37 -24 -2 -127 c0 -71 3 -133 9 -140 10 -15
262 -164 275 -164 11 0 16 -20 15 -70 l0 -44 -75 -44 c-41 -25 -128 -75 -192
-113 l-118 -68 0 142 -1 142 -142 81 c-78 45 -144 80 -146 78 -3 -3 -4 -79 -4
-169 l1 -165 -39 22 c-21 12 -40 26 -40 32 -1 6 -2 106 -3 222 l-1 212 45 -26
c25 -14 108 -63 185 -108 l140 -82 3 219 c1 121 6 219 10 219 4 0 24 -11 43
-25z"/>
<path d="M559 2408 c-1 -4 -1 -209 0 -230 1 -14 20 -6 99 39 53 31 101 59 105
63 4 4 -25 26 -65 50 -40 23 -88 51 -105 62 -18 11 -33 18 -34 16z"/>
<path d="M2756 2765 c-13 -13 -16 -609 -3 -622 15 -14 88 -10 97 6 8 14 12 14
39 -2 38 -22 116 -29 172 -14 62 15 133 87 152 154 42 141 -39 275 -183 301
-46 9 -64 7 -112 -9 -32 -10 -59 -19 -61 -19 -2 0 -3 45 -2 101 1 55 -2 102
-7 105 -17 11 -81 10 -92 -1z m289 -289 c50 -21 77 -69 72 -129 -6 -66 -46
-107 -110 -114 -142 -16 -198 172 -72 240 38 20 66 21 110 3z"/>
<path d="M3883 2772 c-13 -2 -24 -6 -24 -10 -1 -4 -2 -144 -3 -311 -1 -204 1
-304 9 -307 37 -12 77 -11 90 3 14 13 19 13 51 -2 49 -23 107 -26 165 -9 157
47 215 238 113 371 -59 78 -201 111 -278 65 -42 -25 -38 -34 -38 100 0 48 -3
90 -7 92 -12 8 -55 12 -78 8z m294 -308 c62 -40 69 -142 15 -197 -23 -23 -42
-31 -79 -34 -66 -6 -111 24 -131 88 -14 44 -13 50 7 91 26 55 69 80 126 72 22
-3 50 -12 62 -20z"/>
<path d="M1980 2590 c-130 -19 -204 -102 -205 -230 0 -98 47 -175 134 -216 52
-25 145 -23 198 4 50 26 53 26 53 8 0 -14 39 -23 78 -18 18 3 22 10 23 40 1
52 1 363 0 385 -1 24 -88 25 -106 0 -11 -14 -15 -15 -28 -4 -28 22 -100 37
-147 31z m95 -124 c40 -27 63 -71 59 -117 -9 -100 -118 -153 -201 -96 -38 26
-57 65 -55 114 4 97 115 153 197 99z"/>
<path d="M2559 2590 c-20 -4 -49 -16 -66 -28 -31 -22 -31 -22 -36 -1 -5 17
-12 20 -54 17 l-48 -3 -2 -200 c-1 -110 0 -209 2 -221 4 -17 11 -20 50 -19 25
1 48 5 51 8 3 3 6 61 6 129 0 142 12 181 64 206 32 15 60 12 119 -14 6 -2 21
17 33 42 22 44 22 47 5 59 -27 21 -84 32 -124 25z"/>
<path d="M3456 2585 c-208 -53 -235 -338 -42 -438 57 -28 148 -28 204 1 37 19
42 20 50 6 6 -10 25 -16 53 -17 l44 -2 3 223 2 222 -46 0 c-32 0 -51 -5 -59
-16 -11 -15 -14 -15 -37 0 -38 25 -117 35 -172 21z m128 -119 c31 -20 57 -68
58 -106 3 -114 -140 -174 -221 -93 -24 25 -39 83 -30 120 8 38 42 81 74 93 30
12 91 5 119 -14z"/>
<path d="M4581 2588 c-145 -26 -234 -198 -170 -329 59 -120 202 -168 320 -108
46 23 50 23 43 4 -6 -15 1 -17 61 -17 14 0 30 0 35 1 6 1 10 82 10 222 l0 220
-52 -3 c-36 -2 -52 -7 -50 -15 3 -16 -20 -17 -35 -2 -20 20 -115 36 -162 27z
m114 -122 c14 -9 32 -31 41 -49 46 -87 -15 -188 -113 -187 -73 1 -126 54 -126
125 0 105 112 168 198 111z"/>
<path d="M1455 2580 c-17 -5 -41 -19 -54 -31 -18 -17 -25 -19 -31 -9 -5 7 -6
19 -3 27 4 10 -7 13 -45 13 -44 0 -50 -3 -54 -22 -6 -37 -2 -408 5 -415 10
-10 73 -12 88 -2 10 6 14 41 14 137 1 104 4 134 18 155 35 53 102 69 155 36
38 -24 46 -54 47 -191 0 -144 0 -144 69 -143 39 0 43 19 40 165 -3 129 -5 144
-30 195 -32 68 -139 110 -219 85z"/>
</g>
</svg>
